<?xml version="1.0" standalone="no"?>
<!DOCTYPE svg PUBLIC "-//W3C//DTD SVG 20010904//EN"
 "http://www.w3.org/TR/2001/REC-SVG-20010904/DTD/svg10.dtd">
<svg version="1.0" xmlns="http://www.w3.org/2000/svg"
 width="1280.000000pt" height="800.000000pt" viewBox="0 0 1280.000000 800.000000"
 preserveAspectRatio="xMidYMid meet">

<g transform="translate(0.000000,800.000000) scale(0.100000,-0.100000)"
fill="#000000" stroke="none">
<path d="M7516 4572 l-26 -39 -48 24 c-58 28 -134 43 -221 43 -98 0 -204 -54
-337 -170 -33 -29 -74 -55 -97 -61 -101 -27 -103 -66 -4 -84 21 -4 52 -19 68
-32 25 -21 29 -32 29 -73 0 -113 65 -179 209 -211 25 -5 65 -23 88 -39 67 -48
112 -40 191 33 l32 31 0 -25 c0 -14 5 -30 12 -37 16 -16 63 -15 98 3 55 28
207 237 216 296 8 49 -15 54 -103 23 -37 -13 -74 -24 -81 -24 -16 0 -9 30 34
134 43 109 51 164 29 210 -24 49 -54 48 -89 -2z"/>
<path d="M9321 4353 c13 -21 33 -54 46 -73 29 -43 29 -54 0 -67 -104 -48 -162
-184 -174 -409 -7 -120 4 -174 60 -298 21 -49 42 -106 44 -127 7 -52 -18 -116
-62 -159 -33 -32 -35 -32 -59 -16 -31 20 -72 21 -107 2 l-26 -13 19 50 c31 80
58 207 58 270 0 32 4 100 10 150 24 232 32 394 21 416 -14 26 -47 30 -35 4 12
-27 10 -55 -26 -524 -17 -220 -55 -330 -156 -443 -26 -30 -73 -45 -136 -46
-54 0 -58 -18 -13 -57 l39 -33 -17 -35 c-34 -72 -19 -132 69 -267 44 -69 46
-75 41 -128 -7 -82 -49 -196 -140 -380 l-82 -165 -5 -107 -5 -108 -40 21 c-22
12 -56 34 -75 49 -19 15 -45 30 -57 34 -13 4 -23 10 -23 14 0 28 88 143 169
222 86 83 101 104 126 165 53 136 42 242 -35 344 -61 79 -110 177 -110 218 0
20 -5 74 -11 122 -16 121 1 181 94 335 74 122 220 299 257 311 11 3 20 10 20
14 0 42 -79 -8 -161 -103 -71 -82 -213 -302 -225 -350 -12 -49 -24 -15 -24 67
1 127 49 205 163 264 42 22 48 28 30 31 -51 8 -160 -76 -198 -153 -16 -33 -20
-59 -19 -145 2 -171 19 -393 32 -417 17 -31 15 -39 -5 -21 -41 36 -123 63
-123 41 0 -5 24 -22 52 -38 76 -44 93 -75 108 -197 26 -215 27 -195 -25 -309
-40 -90 -88 -159 -101 -146 -2 2 5 30 16 62 26 74 25 131 -1 219 -30 98 -37
116 -49 116 -13 0 -2 -81 22 -149 10 -30 18 -67 18 -83 0 -60 -131 -378 -156
-378 -8 0 -14 -10 -14 -25 0 -23 -4 -25 -46 -25 -25 0 -53 -4 -62 -9 -9 -4
-30 -11 -46 -15 -29 -7 -29 -7 17 47 71 83 58 105 -34 62 -77 -35 -179 -33
-159 5 16 30 94 53 156 45 49 -6 54 -5 54 13 0 24 -68 87 -113 106 -116 48
-143 52 -178 27 -27 -20 -31 -21 -51 -6 -24 16 -94 19 -163 7 -35 -6 -40 -11
-43 -36 l-4 -29 -81 6 c-97 6 -157 -11 -157 -47 0 -13 -10 -26 -27 -33 -16 -7
-43 -22 -61 -33 -32 -20 -33 -23 -27 -63 4 -23 21 -66 37 -95 27 -46 40 -58
122 -102 50 -27 103 -50 118 -50 57 0 37 -27 -53 -73 -40 -19 -99 -87 -99
-111 0 -45 130 -148 264 -210 109 -50 176 -59 391 -51 168 7 185 6 253 -15 91
-28 123 -59 154 -147 19 -58 23 -87 22 -188 -1 -101 -4 -128 -23 -172 -39 -89
-46 -92 -192 -86 l-127 6 33 43 c36 47 58 127 53 191 -2 31 -7 39 -25 41 -13
2 -35 -5 -51 -16 l-27 -20 0 32 c0 34 -13 37 -82 21 -32 -7 -33 -6 -33 24 0
86 -61 128 -162 112 -67 -11 -96 -32 -131 -93 -25 -46 -47 -48 -95 -11 -43 32
-66 23 -70 -31 -4 -43 -19 -46 -52 -11 -71 76 -77 -24 -10 -172 l29 -63 -32
17 c-52 27 -160 29 -255 4 -45 -11 -84 -21 -86 -21 -3 0 -21 14 -41 31 -34 30
-38 31 -110 27 -54 -2 -75 0 -75 9 0 19 -42 43 -75 43 -17 0 -53 -7 -79 -16
-54 -19 -143 -15 -156 7 -5 7 -7 16 -5 19 2 3 9 67 15 142 17 194 -5 336 -96
630 l-37 116 21 29 c21 30 61 122 82 188 7 22 28 69 46 105 41 80 74 174 74
212 0 35 -32 68 -65 68 -17 0 -33 -12 -55 -42 -74 -102 -133 -217 -172 -335
l-41 -123 -52 0 -51 0 -2 83 c-6 276 -15 378 -36 420 -11 23 -33 48 -47 56
-24 13 -30 13 -54 -3 -15 -10 -35 -36 -45 -59 -19 -44 -17 -108 9 -277 16 -97
15 -98 -26 -59 -70 65 -93 79 -139 79 -34 0 -47 -5 -63 -26 -29 -37 -26 -70
11 -144 46 -93 133 -175 248 -235 122 -64 208 -147 259 -255 34 -72 36 -80 36
-182 0 -58 -2 -109 -5 -112 -3 -3 -33 0 -66 6 l-61 12 34 47 c31 43 73 144 73
176 0 7 -9 22 -20 33 -17 17 -28 20 -70 14 -45 -6 -50 -5 -50 13 0 45 -57 65
-138 48 -29 -7 -112 -84 -112 -106 0 -4 -14 -2 -30 4 -25 10 -36 8 -66 -8 -20
-11 -47 -35 -60 -54 -13 -20 -24 -31 -24 -24 0 21 -31 23 -69 4 -29 -15 -43
-33 -64 -78 -38 -87 -51 -173 -33 -217 19 -46 41 -46 65 2 11 21 36 58 55 81
l36 43 0 -35 c0 -46 -23 -109 -56 -153 -39 -50 -22 -62 51 -35 32 12 60 19 63
16 10 -10 -28 -42 -63 -52 -30 -10 -42 -8 -78 10 -58 30 -204 32 -236 3 -20
-19 -22 -19 -41 -1 -44 39 -195 29 -236 -16 -16 -18 -17 -18 -42 1 -43 35
-124 25 -195 -23 -27 -18 -27 -18 -54 3 -23 18 -35 20 -75 15 l-48 -7 20 34
c22 38 36 145 22 167 -13 18 -47 9 -103 -28 l-44 -30 -3 30 c-4 40 -27 47 -58
19 l-24 -23 0 39 c0 32 -6 46 -33 70 -136 128 -270 94 -296 -74 l-7 -47 -33
53 c-35 56 -65 68 -77 30 l-6 -21 -14 24 c-7 13 -13 31 -14 40 0 8 -6 24 -14
34 -14 19 -15 19 -35 1 -11 -10 -33 -40 -48 -65 -21 -37 -27 -57 -25 -100 3
-63 12 -83 64 -137 l39 -41 -47 -7 c-112 -15 -145 -9 -218 39 -38 24 -83 47
-102 51 -19 3 -34 9 -34 13 0 4 30 31 66 60 78 63 101 105 84 157 -6 18 -22
42 -35 52 -13 10 -25 31 -27 47 -4 38 -45 66 -104 72 -27 3 -60 13 -74 23 -37
25 -74 31 -122 21 -38 -9 -44 -7 -64 15 -16 17 -34 24 -58 24 -44 0 -138 -19
-151 -31 -5 -5 -42 -9 -82 -9 -95 0 -134 -19 -210 -100 -22 -24 -29 -40 -24
-49 7 -11 19 -10 70 8 79 27 137 28 151 2 15 -29 -3 -65 -43 -84 -46 -22 -68
-21 -139 5 -51 18 -61 19 -69 7 -11 -17 -3 -56 17 -84 7 -11 21 -30 30 -42
l16 -23 -48 8 c-27 4 -97 7 -156 7 l-106 0 -7 80 c-4 44 -13 125 -21 180 -17
122 -18 207 -3 276 10 45 21 62 83 123 51 51 83 75 115 84 23 7 75 28 113 47
39 19 76 35 83 35 7 0 67 35 132 78 184 122 253 217 261 363 5 90 -6 127 -50
164 -37 32 -78 32 -115 1 -16 -13 -64 -72 -108 -130 -53 -72 -85 -106 -98
-106 -19 0 -20 5 -13 223 8 234 2 290 -35 353 -41 68 -116 67 -145 -2 -17 -41
-13 -71 23 -193 23 -78 24 -91 14 -158 -6 -41 -11 -109 -11 -151 l0 -77 -72
-60 -71 -59 -16 24 c-9 14 -32 43 -52 65 -54 59 -89 115 -89 140 0 13 18 61
39 108 22 46 51 129 65 183 80 313 122 788 76 861 -23 36 -65 49 -95 29 -64
-42 -95 -186 -99 -466 -2 -114 -9 -227 -16 -255 -18 -74 -58 -176 -80 -205
l-19 -25 -11 30 c-27 75 -46 108 -82 141 -44 40 -65 39 -111 -4 -45 -42 -52
-89 -27 -185 12 -45 31 -99 43 -119 117 -197 204 -340 228 -376 16 -23 29 -52
29 -63 0 -12 -21 -44 -46 -73 -60 -66 -73 -97 -76 -190 -3 -63 -6 -75 -18 -70
-58 25 -97 16 -152 -34 -112 -101 -75 -179 114 -242 74 -25 84 -31 89 -56 9
-40 10 -169 3 -241 l-7 -61 -45 15 c-40 14 -53 14 -134 0 -49 -9 -101 -25
-116 -35 -26 -19 -26 -19 -53 0 -44 33 -90 18 -165 -54 -54 -52 -65 -58 -83
-49 -55 30 -163 -10 -248 -91 l-31 -30 -7 48 c-16 118 -39 151 -96 137 -27 -6
-121 -75 -188 -137 -42 -39 -41 -36 21 44 116 153 188 301 188 391 0 56 -49
109 -99 109 -41 0 -67 -15 -126 -71 l-40 -38 3 98 c4 91 2 100 -20 126 -23 26
-26 27 -61 16 -47 -16 -101 -85 -122 -154 -11 -36 -15 -97 -15 -206 0 -157
-20 -332 -42 -358 -6 -7 -19 -13 -29 -13 -16 0 -19 8 -19 48 0 49 20 180 45
292 47 214 57 304 52 435 -6 147 -25 221 -88 347 -30 59 -52 87 -91 119 -50
39 -55 41 -109 37 -44 -3 -65 -11 -96 -35 -83 -66 -130 -207 -118 -354 8 -102
38 -184 155 -419 39 -80 90 -188 112 -240 38 -89 40 -99 34 -164 -3 -38 -9
-72 -12 -77 -3 -5 -22 -9 -43 -9 l-38 0 5 104 c8 183 -50 352 -131 380 -22 8
-33 6 -56 -12 l-29 -21 -33 57 c-47 84 -100 143 -171 191 -58 40 -67 42 -112
37 -27 -3 -59 -12 -71 -20 -54 -36 -57 -148 -6 -297 50 -148 104 -239 210
-354 l46 -50 -115 -12 c-63 -7 -146 -20 -185 -30 l-70 -18 -3 -322 -2 -323
6400 0 6400 0 0 278 0 277 -134 2 c-117 2 -147 6 -228 32 -51 16 -121 37 -155
46 -84 24 -126 67 -126 129 0 63 21 90 82 104 53 12 117 51 179 110 31 29 40
32 91 30 41 -1 67 4 98 20 58 30 64 64 28 176 -27 85 -57 126 -120 161 -16 9
-13 14 23 39 22 15 68 56 102 92 50 51 61 69 58 91 -3 31 -13 32 -80 15 -24
-6 -36 -6 -32 0 3 5 3 20 0 34 -7 27 -31 31 -60 9 -31 -23 -43 -18 -49 23 -9
66 -54 147 -102 181 -54 39 -134 57 -184 42 -20 -5 -40 -11 -46 -11 -47 -6
-145 -105 -145 -148 0 -12 -3 -12 -15 -2 -21 17 -69 -3 -83 -36 -13 -28 -24
-30 -43 -8 -17 20 -85 64 -99 64 -6 0 -16 -11 -22 -26 l-12 -25 -52 58 c-62
69 -75 65 -82 -24 -5 -73 27 -164 74 -211 l32 -32 -42 -1 c-168 -3 -267 27
-357 108 -45 41 -50 71 -22 156 16 50 87 155 128 189 63 52 235 118 415 158
162 36 218 59 314 131 43 33 84 58 90 56 6 -2 21 -18 34 -37 18 -27 22 -47 22
-105 0 -123 54 -155 91 -55 l16 43 11 -46 c7 -25 12 -60 12 -76 0 -47 26 -38
47 17 11 29 18 73 18 117 0 60 -5 81 -33 138 -22 44 -47 78 -71 95 -35 26 -36
29 -29 67 4 22 7 70 7 108 1 55 -3 71 -20 88 -16 16 -23 18 -35 8 -8 -6 -14
-20 -14 -30 0 -25 -17 -24 -25 2 -13 40 -39 16 -65 -61 -42 -124 -60 -142
-180 -184 -40 -14 -137 -60 -216 -101 -133 -70 -149 -76 -211 -78 l-67 -2 -14
38 c-23 59 3 201 52 284 58 99 126 165 215 212 77 40 82 41 176 41 90 0 103
-3 175 -35 43 -19 82 -35 87 -35 13 0 76 69 101 111 40 66 23 92 -43 65 -21
-9 -39 -16 -40 -16 -2 0 2 16 8 35 19 64 -18 69 -77 10 -15 -15 -17 -14 -28 9
-13 30 -34 33 -59 10 -12 -10 -32 -14 -65 -12 l-49 3 74 48 c106 70 189 106
294 129 51 11 115 26 143 32 64 14 84 30 84 70 0 45 -14 60 -55 60 l-37 0 6
46 c6 44 -11 90 -33 90 -20 0 -53 -38 -67 -75 l-14 -40 6 42 c4 34 2 45 -16
63 -31 31 -49 14 -78 -76 l-25 -79 -11 55 c-14 66 -22 80 -45 80 -14 0 -22
-16 -35 -67 -28 -109 -31 -115 -68 -111 -31 3 -33 6 -43 59 -9 42 -9 100 0
225 7 93 10 174 8 181 -6 15 31 98 61 137 13 17 31 47 41 66 18 35 49 76 112
148 39 44 40 56 11 76 -30 21 -32 21 -72 -15 -20 -17 -40 -28 -46 -24 -5 3
-10 24 -10 46 0 26 -7 46 -20 59 -26 26 -34 25 -59 -6 -16 -20 -21 -42 -22
-88 0 -47 -2 -56 -9 -38 -13 32 -54 49 -76 31 -14 -11 -16 -27 -11 -98 7 -89
5 -92 -21 -39 -14 26 -23 33 -46 33 -24 0 -31 -6 -42 -35 -16 -45 -18 -200 -2
-237 7 -18 11 -91 11 -203 -1 -200 -11 -243 -78 -344 -56 -84 -132 -127 -160
-90 -25 35 -28 133 -6 214 27 97 27 103 -10 145 -22 25 -39 35 -60 35 -33 0
-44 -17 -54 -81 -6 -38 -10 -45 -28 -45 -20 1 -22 -4 -22 -49 0 -27 9 -89 20
-137 l19 -88 -28 -122 c-16 -68 -32 -145 -38 -173 -5 -27 -34 -115 -65 -194
-62 -157 -103 -215 -145 -209 -21 3 -23 7 -22 63 1 33 6 92 11 130 15 107 -4
189 -78 337 -73 144 -125 284 -134 359 -5 42 0 80 20 167 15 61 25 119 21 127
-9 25 -35 29 -56 10 -19 -18 -20 -17 -20 11 0 16 -7 66 -16 112 -19 95 -52
144 -81 121 -14 -12 -15 -33 -9 -159 6 -131 5 -143 -9 -126 -8 11 -15 27 -15
37 0 50 -78 188 -107 189 -17 0 -33 -33 -33 -67 l0 -28 -26 28 c-14 15 -29 25
-35 22 -13 -8 -11 -95 2 -136 19 -56 86 -139 118 -145 36 -7 99 -68 118 -112
32 -78 36 -179 6 -189 -13 -5 -29 41 -38 107 -10 70 -14 78 -47 95 -44 21 -72
19 -99 -9 -19 -20 -27 -22 -46 -13 -17 7 -28 6 -48 -7 -29 -19 -30 -25 -11
-70 l14 -33 -44 16 c-49 18 -77 9 -82 -26 -5 -34 36 -71 126 -114 175 -83 195
-95 253 -151 90 -88 172 -270 214 -476 9 -42 19 -88 22 -102 l6 -25 -24 21
c-13 11 -69 51 -124 89 -167 113 -180 139 -145 314 20 104 21 121 9 147 -25
52 -71 43 -110 -20 l-18 -30 -10 27 c-15 40 -53 54 -86 33 -29 -19 -32 -50
-10 -103 8 -19 15 -43 14 -52 -1 -17 -69 116 -69 135 0 25 -30 38 -61 27 -29
-11 -29 -11 -29 25 0 52 -25 183 -39 210 -25 46 -64 18 -80 -59 -6 -28 -9 -55
-5 -60 3 -5 -4 -9 -15 -9 -10 0 -21 -6 -23 -12 -7 -20 13 -90 34 -120 11 -16
17 -32 14 -36 -3 -5 -35 -4 -70 1 -103 14 -141 -6 -103 -55 15 -20 108 -48
159 -48 56 0 99 -22 158 -78 42 -40 51 -55 48 -78 -2 -15 -7 -29 -13 -30 -5
-2 -30 28 -54 67 -38 58 -49 69 -73 69 -16 0 -28 -6 -28 -12 -1 -33 -16 -40
-55 -24 -77 33 -152 39 -168 15 -5 -9 -7 -28 -3 -43 9 -37 77 -103 115 -111
l32 -7 -26 -20 c-29 -23 -33 -59 -8 -84 14 -13 28 -15 74 -10 55 5 57 5 52
-17 -30 -135 -80 -184 -241 -238 -87 -29 -103 -38 -153 -89 -30 -31 -61 -72
-69 -91 -7 -19 -14 -35 -15 -37 -1 -1 -10 0 -19 4 -33 13 -20 71 31 138 65 87
118 204 152 342 59 235 61 295 10 409 -28 63 -37 43 -12 -27 25 -75 22 -178
-12 -323 -15 -66 -29 -124 -32 -128 -8 -13 -85 115 -115 192 -18 45 -27 83
-24 97 4 13 45 81 92 151 140 209 169 280 162 402 -5 82 -40 169 -92 224 l-25
27 96 118 c60 72 110 145 132 192 35 73 36 78 36 195 0 116 -1 123 -33 187
-32 66 -105 143 -124 132 -5 -3 11 -23 35 -44 27 -24 55 -63 73 -102 26 -57
29 -73 29 -173 0 -103 -2 -114 -32 -178 -18 -38 -47 -88 -65 -110 -79 -102
-162 -197 -171 -197 -6 0 -19 7 -29 17 -27 25 -35 7 -8 -22 l23 -24 -70 -98
c-99 -137 -120 -174 -154 -261 -17 -42 -44 -108 -60 -147 -30 -70 -30 -70 -25
-25 3 25 11 94 17 154 10 100 15 118 59 205 72 144 95 226 93 346 -1 205 -37
332 -114 411 l-39 40 37 21 c21 12 57 27 81 34 46 13 59 35 15 25 -16 -4 -57
-20 -92 -37 -59 -27 -65 -28 -82 -14 -10 10 -19 12 -23 6 -4 -5 2 -14 11 -20
15 -9 16 -12 4 -20 -12 -7 -25 8 -61 72 -26 45 -56 98 -69 118 -18 31 -19 37
-6 43 23 9 18 24 -7 19 -19 -3 -31 9 -70 72 -26 41 -52 75 -58 75 -7 0 -2 -16
11 -37z m121 -200 c63 -105 98 -170 98 -185 0 -8 -12 -25 -26 -39 -71 -66 -94
-188 -70 -360 9 -63 19 -122 22 -131 11 -37 -7 -16 -36 43 -17 33 -44 111 -60
174 -35 132 -78 255 -91 255 -13 0 -11 -10 11 -76 12 -32 34 -113 51 -179 23
-93 44 -146 92 -235 l61 -115 0 -110 c0 -162 -29 -352 -69 -455 -18 -47 -41
-112 -51 -145 -20 -67 -73 -129 -200 -235 l-72 -60 -14 23 c-10 15 -17 65 -22
152 -3 72 -9 158 -12 192 -6 61 -5 63 20 72 14 6 35 22 48 36 27 31 36 32 44
0 3 -14 14 -30 24 -35 23 -12 41 11 105 138 50 99 52 132 10 132 -18 0 -25 7
-29 30 -3 17 -9 43 -12 59 -3 16 -12 35 -20 42 -20 17 -18 27 17 67 67 76 78
160 33 264 -63 150 -73 189 -74 289 0 175 43 345 101 395 28 23 71 53 80 53 3
1 22 -25 41 -56z m213 -214 c65 -73 91 -159 102 -349 7 -122 -12 -218 -69
-340 l-33 -73 4 167 c2 116 -2 204 -14 293 -16 124 -48 272 -65 302 -5 10 -2
20 8 28 24 18 26 17 67 -28z m-66 -111 c37 -158 54 -339 48 -513 -3 -88 -11
-173 -17 -190 -11 -29 -12 -28 -49 71 -21 55 -43 109 -49 120 -6 11 -22 91
-37 179 -38 225 -28 321 42 413 32 42 35 37 62 -80z m429 -578 c41 -84 43
-182 5 -281 -22 -54 -184 -321 -218 -357 -2 -2 -20 48 -41 110 -47 142 -49
202 -10 282 23 47 67 93 125 133 2 2 1 6 -2 9 -4 4 -25 -5 -47 -21 -41 -28
-75 -68 -103 -120 -9 -16 -16 -26 -17 -21 -1 24 78 162 152 265 l82 114 23
-29 c13 -16 36 -54 51 -84z m-447 -142 c12 -44 11 -48 -27 -122 -43 -84 -51
-79 -35 24 6 38 11 104 12 147 l1 78 18 -40 c11 -23 24 -61 31 -87z m16 -177
c-3 -56 -13 -97 -32 -138 -24 -54 -95 -166 -101 -160 -1 1 4 27 12 57 8 30 14
69 14 87 0 28 96 233 109 233 2 0 1 -36 -2 -79z m-709 -69 c16 -35 106 -122
127 -122 18 0 23 -43 31 -235 7 -192 -3 -260 -51 -342 -19 -32 -68 -92 -108
-133 -41 -41 -92 -102 -113 -134 l-39 -59 -3 66 c-3 59 1 77 32 145 19 43 53
111 75 150 52 95 105 239 121 328 14 80 12 85 -66 204 -53 80 -71 142 -54 185
l12 30 11 -25 c6 -14 17 -40 25 -58z m871 -176 c37 -109 39 -120 26 -146 -27
-52 -55 -175 -62 -265 l-6 -90 -81 -26 c-45 -15 -83 -25 -85 -23 -2 2 1 52 8
111 6 59 18 172 26 250 16 155 38 246 87 367 l33 80 7 -70 c4 -38 25 -122 47
-188z m-175 5 c-7 -52 -20 -173 -29 -270 -27 -296 -28 -300 -72 -337 -47 -39
-43 -46 -78 148 -38 218 -43 198 90 394 46 67 86 132 90 144 13 40 13 16 -1
-79z m-813 -140 c17 -35 20 -58 17 -120 -6 -116 -36 -172 -161 -295 -78 -78
-110 -117 -135 -168 -31 -65 -34 -68 -68 -68 -20 0 -34 4 -32 8 2 5 23 51 47
104 33 73 51 99 75 113 17 10 42 27 54 39 31 27 111 199 119 251 3 22 -2 96
-11 163 -9 68 -16 128 -16 134 0 15 88 -112 111 -161z m664 94 c-22 -60 -29
-53 -7 7 9 26 18 45 21 43 2 -3 -4 -25 -14 -50z m399 -177 c10 -29 41 -87 68
-128 45 -68 48 -78 42 -115 -8 -51 -45 -127 -94 -190 -45 -59 -61 -95 -53
-124 3 -12 1 -21 -5 -21 -14 0 -32 86 -39 188 -7 90 -1 102 44 102 12 0 25 5
29 12 5 8 -5 9 -36 5 l-43 -5 5 87 c5 80 43 241 57 241 4 0 15 -24 25 -52z
m-520 -114 c-26 -60 -55 -133 -64 -162 l-17 -54 -51 69 -52 68 62 55 c35 30
85 76 113 102 27 26 51 43 53 39 1 -4 -19 -57 -44 -117z m99 -274 c13 -43 12
-49 -14 -104 l-27 -58 -18 33 c-9 19 -36 64 -59 100 l-42 65 17 55 c9 30 32
89 50 133 l34 78 23 -128 c13 -71 29 -149 36 -174z m1104 255 c130 -17 210
-52 351 -153 132 -94 155 -141 166 -329 6 -109 4 -115 -37 -89 -64 42 -567 77
-660 47 -31 -11 -45 -10 -86 4 -37 12 -78 15 -167 13 -100 -3 -126 0 -162 16
-45 21 -48 26 -31 59 40 75 108 128 208 162 159 53 226 114 252 231 14 63 4
60 166 39z m-1428 -34 c8 -14 6 -22 -7 -34 -17 -15 -18 -14 -14 18 5 40 7 42
21 16z m81 -116 c57 -78 54 -58 29 -237 l-13 -96 -65 -7 c-36 -3 -91 -13 -122
-21 -31 -8 -60 -14 -63 -14 -21 0 33 247 63 290 10 14 26 41 36 60 16 32 75
103 81 97 1 -1 25 -33 54 -72z m550 -54 c0 -29 26 -191 36 -223 4 -15 1 -16
-23 -8 -15 5 -57 11 -92 13 -76 5 -79 8 -87 110 -8 85 -10 82 90 117 70 25 76
25 76 -9z m-413 -146 c56 -94 46 -128 -39 -139 -41 -5 -48 -3 -49 12 -2 38 2
91 13 156 13 78 11 78 75 -29z m226 20 c4 -36 11 -73 16 -83 8 -15 2 -18 -47
-28 -31 -7 -72 -15 -89 -19 l-33 -7 15 41 c8 23 19 49 25 59 9 14 10 12 5 -11
-6 -30 1 -67 13 -67 4 0 8 30 9 68 3 61 6 69 35 94 17 15 34 25 38 23 4 -2 10
-34 13 -70z m-603 -31 c-11 -38 -20 -93 -20 -122 0 -48 -2 -53 -27 -63 -25
-10 -130 -5 -141 6 -7 7 97 147 151 202 28 29 52 51 54 50 1 -2 -6 -35 -17
-73z m437 -106 c-3 -8 -6 -5 -6 6 -1 11 2 17 5 13 3 -3 4 -12 1 -19z m-8117
-1152 c0 -2 -8 -10 -17 -17 -16 -13 -17 -12 -4 4 13 16 21 21 21 13z"/>
<path d="M7683 3751 c-114 -31 -143 -51 -323 -217 -30 -29 -72 -59 -93 -68
-27 -11 -38 -21 -35 -33 3 -19 26 -28 204 -82 l101 -31 49 -71 c82 -118 97
-133 126 -126 15 4 45 31 69 59 l42 53 -7 -73 c-5 -62 -4 -73 10 -79 12 -4 27
6 49 33 18 21 49 57 69 79 49 54 118 194 120 242 1 32 -3 38 -21 41 -12 2 -44
-8 -72 -23 l-51 -25 0 40 c0 23 5 51 12 63 14 27 12 132 -3 169 -26 63 -122
82 -246 49z"/>
</g>
</svg>
